<svg width="34" height="26" viewBox="0 0 34 26" fill="none" xmlns="http://www.w3.org/2000/svg">
<path d="M31.1456 0.628758C30.6507 0.643505 30.1809 0.850353 29.8359 1.20548L10.2274 20.814L3.95413 14.5408C3.77859 14.3579 3.56833 14.212 3.33567 14.1114C3.10301 14.0108 2.85262 13.9577 2.59917 13.9551C2.34573 13.9526 2.09431 14.0006 1.85965 14.0964C1.625 14.1922 1.41181 14.3338 1.23259 14.5131C1.05337 14.6923 0.911705 14.9055 0.815902 15.1401C0.720099 15.3748 0.672081 15.6262 0.674659 15.8796C0.677238 16.1331 0.730361 16.3835 0.830918 16.6161C0.931476 16.8488 1.07745 17.0591 1.26028 17.2346L8.88044 24.8548C9.23772 25.2119 9.7222 25.4125 10.2274 25.4125C10.7325 25.4125 11.217 25.2119 11.5743 24.8548L32.5297 3.89932C32.805 3.63174 32.993 3.28723 33.0692 2.91095C33.1453 2.53466 33.106 2.14416 32.9563 1.79061C32.8067 1.43706 32.5538 1.13696 32.2307 0.92964C31.9075 0.722316 31.5293 0.617441 31.1456 0.628758Z" fill="#FFF3EB"/>
</svg>
