<svg width="29" height="27" viewBox="0 0 29 27" fill="none" xmlns="http://www.w3.org/2000/svg">
<path d="M14.1094 0C13.9825 0 13.8561 0.0402402 13.7482 0.121905L0.331781 10.5932C0.0809521 10.7916 0.0343318 11.158 0.232662 11.4147C0.430992 11.6655 0.797437 11.7121 1.0541 11.5138L1.85959 10.8849V26.2199C1.85959 26.5408 2.12208 26.8032 2.44291 26.8032H10.6094V16.3034H17.6093V26.8032H25.7758C26.0967 26.8032 26.3592 26.5408 26.3592 26.2199V10.8849L27.1646 11.5138C27.2755 11.5955 27.3975 11.6368 27.5258 11.6368C27.7008 11.6368 27.8694 11.5605 27.9861 11.4147C28.1844 11.158 28.1378 10.7916 27.887 10.5932L14.4705 0.121905C14.3626 0.0402402 14.2362 0 14.1094 0ZM19.9426 2.30367V2.91662L23.4425 5.64639V2.30367H19.9426Z" fill="#FFF3EB"/>
</svg>
