<svg width="93" height="64" viewBox="0 0 93 64" fill="none" xmlns="http://www.w3.org/2000/svg">
<path d="M26.6473 0H54.1443C54.1443 0 61.7415 0.535776 64.2034 5.26004H40.1826C40.1826 5.26004 34.258 5.72843 34.258 11.2176V14.2233C34.258 14.2233 33.9221 20.2348 40.3035 20.2348H48.6496C48.6496 20.2348 50.9469 20.7201 50.9469 22.6509C50.9469 24.5817 50.3054 25.4949 49.1299 25.4949H26.6473V0Z" fill="#C04427"/>
<path d="M65.3083 10.2H42.4463C42.4463 10.2 39.8769 10.0551 39.8769 12.3801V13.2765C39.8769 13.2765 39.8433 15.4229 42.3388 15.4229H50.6513C50.6513 15.4229 56.2837 16.2451 56.2837 20.1405V25.478C56.2837 25.478 56.2502 30.6841 51.0947 30.6841H26.6473V35.8195H55.1082C55.1082 35.8195 63.5954 35.4623 65.5938 28.9488C66.4476 26.6028 66.4476 24.0297 65.5938 21.6838C65.5938 21.6838 63.9884 17.9266 60.6734 17.4616C60.6734 17.4616 65.2378 16.2451 65.3083 10.2Z" fill="#4A3C33"/>
<path d="M0 45.0558H4.79946C5.95694 45.0098 7.11524 45.1232 8.24204 45.3928C9.02425 45.6324 9.69505 46.1453 10.1329 46.8383C10.6121 47.5594 10.8517 48.722 10.8517 50.3259C10.8517 51.411 10.6826 52.1669 10.3445 52.5937C10.0064 53.0205 9.33471 53.3485 8.32936 53.5777C9.4489 53.8315 10.2023 54.2505 10.5897 54.8345C10.9771 55.4186 11.1752 56.3172 11.1842 57.5303V59.2488C11.1842 60.5023 11.042 61.4312 10.7576 62.0355C10.6286 62.3245 10.442 62.584 10.2092 62.7978C9.9764 63.0117 9.70241 63.1754 9.40412 63.2789C8.77942 63.5036 7.49978 63.6159 5.56522 63.6159H0V45.0558ZM4.80953 48.23V52.3578C5.01441 52.3578 5.17562 52.3578 5.28982 52.3578C5.76002 52.3578 6.0623 52.2433 6.19328 52.0209C6.32427 51.7985 6.38472 51.1212 6.38472 50.0227C6.4092 49.6097 6.35564 49.1958 6.22687 48.8028C6.19138 48.7045 6.13608 48.6146 6.06443 48.5386C5.99278 48.4627 5.90631 48.4024 5.8104 48.3614C5.4847 48.2701 5.14769 48.2258 4.80953 48.23ZM4.80953 55.2456V60.4349C5.48126 60.4147 5.91788 60.3069 6.10596 60.1148C6.29404 59.9227 6.38472 59.4409 6.38472 58.7063V56.9743C6.38472 56.179 6.30076 55.6972 6.13619 55.5321C5.97161 55.3669 5.52492 55.2625 4.80953 55.2625V55.2456Z" fill="#C14427"/>
<path d="M12.9205 45.0558H16.3227C18.5932 45.0558 20.1303 45.1434 20.9341 45.3186C21.7388 45.4945 22.4436 45.978 22.8989 46.6665C23.4049 47.3876 23.658 48.5389 23.658 50.1204C23.658 51.5671 23.4788 52.5376 23.1206 53.0318C22.7623 53.526 22.0581 53.8203 21.008 53.9146C21.9585 54.1539 22.6 54.4706 22.9258 54.8682C23.2101 55.1818 23.4192 55.5564 23.537 55.9634C23.6505 56.873 23.6909 57.7902 23.658 58.7063V63.6024H19.191V57.4359C19.191 56.443 19.1126 55.8275 18.9559 55.5894C18.8014 55.3535 18.3917 55.2355 17.73 55.2355V63.6024H12.9205V45.0558ZM17.73 48.23V52.3578C18.122 52.3903 18.5152 52.3121 18.8652 52.1321C19.0835 51.9838 19.2011 51.4986 19.2011 50.6831V49.6722C19.2011 49.0859 19.097 48.6984 18.8887 48.5164C18.5467 48.2903 18.1376 48.1892 17.73 48.23Z" fill="#C14427"/>
<path d="M30.3283 45.0558V63.6125H25.5255V45.0558H30.3283Z" fill="#C14427"/>
<path d="M43.4906 53.1362H38.6811V49.9115C38.7185 49.3218 38.6664 48.7298 38.5266 48.1559C38.4608 48.039 38.3617 47.9444 38.242 47.8844C38.1224 47.8244 37.9875 47.8016 37.8549 47.8189C37.7004 47.7973 37.5432 47.8271 37.4073 47.9038C37.2714 47.9805 37.1643 48.0998 37.1025 48.2435C36.9611 48.8435 36.9068 49.4609 36.9413 50.0766V58.6962C36.9072 59.2895 36.9616 59.8846 37.1025 60.4619C37.1594 60.6011 37.2611 60.7171 37.3913 60.7916C37.5216 60.8661 37.6729 60.8948 37.8213 60.873C37.9674 60.8906 38.1152 60.8595 38.242 60.7847C38.3688 60.7098 38.4676 60.5952 38.5232 60.4585C38.6736 59.8233 38.7301 59.1693 38.6912 58.5176V56.1723H43.5007V56.8968C43.5007 58.8175 43.3652 60.1788 43.0943 60.9808C42.7536 61.8694 42.1209 62.6147 41.3008 63.0936C40.2737 63.7268 39.0832 64.0421 37.8784 64C36.6711 64.0461 35.4722 63.7817 34.3955 63.2317C33.5375 62.7867 32.8859 62.0241 32.5785 61.1055C32.2829 60.2069 32.134 58.8456 32.1318 57.0215V51.5997C32.1155 50.5947 32.1615 49.5898 32.2695 48.5906C32.3748 47.8882 32.6556 47.2239 33.0856 46.6597C33.5743 46.0128 34.2258 45.5081 34.9732 45.1973C35.8487 44.8286 36.7913 44.6473 37.7407 44.6649C38.96 44.6198 40.1688 44.905 41.2403 45.4905C42.0698 45.9352 42.7132 46.6631 43.054 47.5426C43.3473 48.3648 43.4929 49.6419 43.4906 51.3739V53.1362Z" fill="#C14427"/>
<path d="M55.4171 50.673H50.9501V49.2948C50.9881 48.8781 50.9294 48.4583 50.7788 48.0682C50.715 47.978 50.6287 47.9062 50.5284 47.86C50.4282 47.8139 50.3177 47.795 50.2079 47.8054C50.0766 47.7995 49.9463 47.8297 49.8309 47.8926C49.7155 47.9556 49.6194 48.0489 49.5529 48.1626C49.3799 48.4942 49.302 48.8675 49.3279 49.2409C49.3003 49.7204 49.3866 50.1997 49.5798 50.6393C49.7388 50.9538 50.1866 51.3323 50.9232 51.7748C53.0638 53.0486 54.4072 54.0943 54.9536 54.912C55.4999 55.7297 55.7776 57.0472 55.7865 58.8646C55.7865 60.19 55.6331 61.165 55.3264 61.7895C54.9237 62.5016 54.2928 63.0562 53.5362 63.3631C52.5695 63.8057 51.5155 64.0234 50.453 64C49.3109 64.0342 48.1784 63.7817 47.1582 63.2654C46.3511 62.8879 45.7129 62.2224 45.3681 61.3986C45.0449 60.3569 44.9017 59.2674 44.9449 58.1772V56.9641H49.4119V59.2218C49.4119 59.916 49.4757 60.3641 49.6033 60.5697C49.6786 60.6748 49.7807 60.7578 49.8988 60.8099C50.017 60.8621 50.1469 60.8815 50.275 60.8662C50.4173 60.8749 50.5592 60.8444 50.6853 60.7778C50.8114 60.7113 50.917 60.6113 50.9904 60.4888C51.1675 60.1426 51.2487 59.7551 51.2255 59.3667C51.2255 58.2727 51.0766 57.5583 50.7788 57.2236C50.0866 56.5882 49.3327 56.0237 48.5286 55.5388C47.6989 55.0159 46.9056 54.4373 46.154 53.8068C45.7255 53.3884 45.3951 52.8797 45.1867 52.3174C44.9075 51.539 44.7776 50.7147 44.8039 49.8878C44.8039 48.4658 44.9852 47.4269 45.348 46.7709C45.7482 46.0778 46.3641 45.5357 47.1011 45.2276C48.0252 44.8338 49.0229 44.6442 50.0265 44.6716C51.1211 44.6413 52.2094 44.8482 53.2172 45.2781C54.0971 45.6859 54.6815 46.1947 54.967 46.8113C55.2525 47.428 55.3936 48.4692 55.3936 49.9451L55.4171 50.673Z" fill="#4A3C33"/>
<path d="M65.6272 45.0558L68.3745 63.6125H63.4777L63.2191 60.2766H61.4995L61.2106 63.6125H56.2197L58.6749 45.0558H65.6272ZM63.078 56.9878C62.834 54.8851 62.5899 52.2871 62.3458 49.1937C61.8555 52.7454 61.5476 55.3434 61.4222 56.9878H63.078Z" fill="#4A3C33"/>
<path d="M79.9349 45.0558V63.6125H75.7165L73.2144 55.1884V63.6125H69.1874V45.0558H73.2177L75.9046 53.4092V45.0558H79.9349Z" fill="#4A3C33"/>
<path d="M81.8627 45.0558H85.4597C87.7839 45.0558 89.3513 45.1625 90.1618 45.3759C90.876 45.5306 91.5269 45.8982 92.0292 46.4306C92.4423 46.89 92.7191 47.456 92.8286 48.0649C92.9672 49.2377 93.0211 50.4191 92.9898 51.5997V58.0997C92.9898 59.7644 92.9114 60.8775 92.7547 61.4391C92.6296 61.9543 92.3436 62.416 91.9385 62.7566C91.5185 63.093 91.0245 63.3241 90.4977 63.4306C89.6465 63.5818 88.7823 63.6462 87.9183 63.6226H81.8627V45.0558ZM86.6722 48.23V60.4349C87.3641 60.4349 87.7906 60.2968 87.9518 60.0171C88.1131 59.7374 88.1903 58.9792 88.1903 57.7426V50.545C88.2089 50.0045 88.1819 49.4634 88.1097 48.9275C88.0896 48.8192 88.0465 48.7165 87.9833 48.6264C87.9201 48.5363 87.8384 48.4609 87.7436 48.4052C87.405 48.2638 87.0381 48.2038 86.6722 48.23Z" fill="#4A3C33"/>
</svg>
