<svg width="168" height="168" viewBox="0 0 168 168" fill="none" xmlns="http://www.w3.org/2000/svg">
<path d="M17.3156 0L0 29.6728V143.25H73.9721C73.2001 140.671 72.6056 138.013 72.2157 135.292H72.2623C71.8883 132.689 71.625 130.039 71.625 127.333C71.625 96.5664 96.5664 71.625 127.333 71.625C130.039 71.625 132.689 71.8883 135.292 72.2623V72.2157C138.013 72.6136 140.671 73.2081 143.25 73.9721V29.6728L125.934 0H17.3156ZM26.4552 15.9167H116.795L126.074 31.8333H17.1757L26.4552 15.9167ZM47.75 47.75H95.5V63.6667H47.75V47.75ZM127.333 87.5417C105.36 87.5417 87.5417 105.36 87.5417 127.333C87.5417 149.306 105.36 167.125 127.333 167.125C149.306 167.125 167.125 149.306 167.125 127.333C167.125 105.36 149.306 87.5417 127.333 87.5417ZM143.654 108.634L154.783 119.779L123.354 151.208L99.8833 127.737L111.013 116.593L123.354 128.919L143.654 108.634Z" fill="#C04427"/>
</svg>
