<svg width="33" height="24" viewBox="0 0 33 24" fill="none" xmlns="http://www.w3.org/2000/svg">
<path d="M1.92937 0C0.924375 0 0.109375 0.8175 0.109375 1.82V18.56C0.109375 19.5625 1.02438 20.48 2.02937 20.48H4.64937C4.95438 22.295 6.52938 23.68 8.42937 23.68C10.3294 23.68 11.9044 22.295 12.2094 20.48H18.1294C19.1319 20.48 19.9494 19.6625 19.9494 18.66V1.86C19.9494 0.835 19.1419 0 18.1494 0H1.92937ZM21.2294 4.48V20.48C21.5369 22.2925 23.1694 23.68 25.0694 23.68C26.9694 23.68 28.5444 22.2925 28.8494 20.48H30.1894C31.1944 20.48 32.1094 19.565 32.1094 18.56V12.4C32.1094 11.1125 31.1819 9.7975 31.0694 9.64L28.4094 6.08C27.7994 5.345 26.8419 4.48 25.7094 4.48H21.2294ZM24.4294 7.68H28.0094L30.0494 10.4C30.2669 10.7075 30.8294 11.65 30.8294 12.4V12.8H24.4294C23.7894 12.8 23.1494 12.16 23.1494 11.52V8.96C23.1494 8.2525 23.7894 7.68 24.4294 7.68ZM8.42937 17.28C9.84188 17.28 10.9894 18.4275 10.9894 19.84C10.9894 21.2525 9.84188 22.4 8.42937 22.4C7.01687 22.4 5.86937 21.2525 5.86937 19.84C5.86937 18.4275 7.01687 17.28 8.42937 17.28ZM25.0694 17.28C26.4819 17.28 27.6294 18.4275 27.6294 19.84C27.6294 21.2525 26.4819 22.4 25.0694 22.4C23.6569 22.4 22.5094 21.2525 22.5094 19.84C22.5094 18.4275 23.6569 17.28 25.0694 17.28Z" fill="#FFF3EB"/>
</svg>
