<svg width="29" height="27" viewBox="0 0 29 27" fill="none" xmlns="http://www.w3.org/2000/svg">
<path d="M8.1375 0C7.98438 0 7.82305 0.0601566 7.7 0.153125L0.56875 5.6H11.0469L17.4125 0H8.1375ZM19.5344 0L13.1687 5.6H21.525L27.1469 0H19.5344ZM28.1094 1.02812L22.5094 6.58437V26.1406L27.9562 19.3375C28.0547 19.2117 28.1094 19.0586 28.1094 18.9V1.02812ZM0.109375 7V25.9C0.109375 26.2883 0.423828 26.6 0.809375 26.6H21.1094V7H0.109375ZM7.80937 9.8H14.8094C15.1977 9.8 15.5094 10.1145 15.5094 10.5C15.5094 10.8855 15.1977 11.2 14.8094 11.2H7.80937C7.42383 11.2 7.10938 10.8855 7.10938 10.5C7.10938 10.1145 7.42383 9.8 7.80937 9.8Z" fill="#FFF3EB"/>
</svg>
